<svg width="93" height="77" viewBox="0 0 93 77" fill="none" xmlns="http://www.w3.org/2000/svg">
<path fill-rule="evenodd" clip-rule="evenodd" d="M4.99699 63.5175L9.28012 55.5778L8.32831 47.7879V43.144L9.28012 37.751V36.2529L10.5889 40.8969V34.6051L16.6566 27.714H17.3705L18.3223 31.7588L18.7982 32.5078V27.714L19.512 25.9163L27.7214 18.8755L25.6988 25.9163L29.0301 17.9767L37.0015 11.3852L36.1687 14.2315L37.9533 10.4864L43.3072 7.93969L41.9985 12.7335L46.2816 7.04086L54.372 3.74514L53.4202 5.84241L56.2756 3.74514L61.3916 2.09728L60.3208 3.74514L64.7229 1.19844L79 0L75.1928 4.49416H71.6235L74.8358 5.24319L70.0768 8.68872L61.3916 9.58755H68.7681L61.3916 15.8794H55.4428L59.369 17.2276L50.4458 24.4183H44.1401L48.5422 25.9163L43.3072 30.8599H39.7379L41.9985 32.5078L37.9533 37.751H29.9819L37.0015 38.6498L33.1943 43.144L24.1521 44.9416H32.0045L25.6988 53.3307L22.6054 55.5778L16.6566 54.3794L19.512 56.4767L12.2545 57.5253L9.28012 63.5175V64.5661L8.32831 65.465L8.80422 66.214L8.44729 66.8881V67.1128L8.32831 67.1128L7.85241 67.1128L7.37651 67.1128L4.99699 74.1537H3.80723L0.951807 77H0L0.951807 74.1537L0 70.858L3.80723 65.465V64.5661V63.5175H4.99699ZM75.5984 63.0017L75.542 62.9984L75.4857 63.0015L68.0212 63.406L67.9668 63.4089L67.9131 63.4177L62.1711 64.3616L62.065 64.379L61.9649 64.4186L58.9026 65.6321L58.6968 65.7137L58.5446 65.8744L57.0135 67.4924L56.7398 67.7816V68.1798V69.1236V69.7262L57.2726 70.0078L58.8038 70.8168L58.8868 70.8606L58.9764 70.8882L62.0388 71.832L62.1114 71.8544L62.1866 71.8656L65.8232 72.4049L65.8961 72.4157H65.9699H71.329H75.5398H75.6099L75.6793 72.406L79.5073 71.8666L79.5861 71.8555L79.6623 71.832L82.7246 70.8882L82.9758 70.8108L83.1564 70.6199L83.922 69.811L84.5245 69.1743L83.9723 68.4936L83.2067 67.5498L82.9066 67.1798H82.4301H80.5161H77.4538V69.1798H80.5161H81.4774L79.1493 69.8973L75.4697 70.4157H71.329H66.0436L62.5552 69.8984L59.6552 69.0046L58.7757 68.5399L59.8451 67.4099L62.6017 66.3176L68.1837 65.4001L75.5375 65.0016L82.2819 65.3975L88.1479 66.818L91 68.7156V70.4782L89.1829 72.3984L83.7726 73.6688L74.8911 75H59.271H39.3656H3V77H39.3656H59.271H74.9656H75.0401L75.1138 76.989L84.1095 75.6406L84.15 75.6346L84.1899 75.6252L89.9318 74.2769L90.2236 74.2084L90.4295 73.9907L92.7263 71.5638L93 71.2746V70.8764V68.1798V67.644L92.5539 67.3472L89.1088 65.0551L88.9618 64.9573L88.7902 64.9157L82.6655 63.4326L82.5783 63.4115L82.4887 63.4062L75.5984 63.0017Z" fill="#CBB393"/>
</svg>
